<svg version="1.1" id="Layer_1" xmlns="http://www.w3.org/2000/svg" xmlns:xlink="http://www.w3.org/1999/xlink" x="0px" y="0px"
	 width="100%" viewBox="0 0 1000 1000" enable-background="new 0 0 1000 1000" xml:space="preserve">
<path fill="#FFFFFF" opacity="1.000000" stroke="none" 
	d="
M431.000000,1.000000 
	C477.354218,1.000000 523.708435,1.000000 570.531372,1.460390 
	C571.000000,4.859990 571.000000,7.799200 571.000000,11.108473 
	C587.912903,11.108473 604.322205,11.108473 621.114136,11.108473 
	C621.114136,14.572137 621.114136,17.653660 621.114136,21.106644 
	C631.243896,21.106644 640.989807,21.106644 651.114746,21.106644 
	C651.114746,24.570398 651.114746,27.656305 651.114746,31.107203 
	C661.244507,31.107203 670.990540,31.107203 681.115356,31.107203 
	C681.115356,34.571175 681.115356,37.657429 681.115356,41.109261 
	C687.912659,41.109261 694.329712,41.109261 701.118958,41.109261 
	C701.118958,44.574821 701.118958,47.660995 701.118958,51.112679 
	C707.916443,51.112679 714.333618,51.112679 721.122620,51.112679 
	C721.122620,54.578484 721.122620,57.664566 721.122620,61.116096 
	C727.920227,61.116096 734.337463,61.116096 741.126282,61.116096 
	C741.126282,64.584282 741.126282,67.665329 741.126282,71.119476 
	C747.924072,71.119476 754.341431,71.119476 761.127930,71.119476 
	C761.127930,74.588821 761.127930,77.677299 761.127930,81.127228 
	C764.589417,81.127228 767.678284,81.127228 771.130798,81.127228 
	C771.130798,84.587997 771.130798,87.674179 771.130798,91.125778 
	C777.931030,91.125778 784.348267,91.125778 791.134521,91.125778 
	C791.134521,94.597855 791.134521,97.681488 791.134521,101.133751 
	C794.596313,101.133751 797.684937,101.133751 801.135254,101.133751 
	C801.135254,104.597992 801.135254,107.686584 801.135254,111.136864 
	C804.601990,111.136864 807.685913,111.136864 811.140625,111.136864 
	C811.140625,114.600418 811.140625,117.681122 811.140625,121.135101 
	C817.941467,121.135101 824.358032,121.135101 831.144409,121.135101 
	C831.144409,124.608017 831.144409,127.691246 831.144409,131.143402 
	C834.609070,131.143402 837.692627,131.143402 841.144897,131.143402 
	C841.144897,134.610687 841.144897,137.694244 841.144897,141.146439 
	C844.612305,141.146439 847.695740,141.146439 851.147949,141.146439 
	C851.147949,144.613922 851.147949,147.697327 851.147949,151.149460 
	C854.615540,151.149460 857.698853,151.149460 861.150940,151.149460 
	C861.150940,154.617172 861.150940,157.700424 861.150940,161.152481 
	C864.618774,161.152481 867.701965,161.152481 871.154053,161.152481 
	C871.154053,164.620377 871.154053,167.703445 871.154053,171.158112 
	C874.616699,171.158112 877.702087,171.158112 881.151733,171.158112 
	C881.151733,177.959778 881.151733,184.373810 881.151733,191.161865 
	C884.623657,191.161865 887.710999,191.161865 891.160583,191.161865 
	C891.160583,194.627563 891.160583,197.710342 891.160583,201.162140 
	C894.629150,201.162140 897.711853,201.162140 901.163696,201.162140 
	C901.163696,204.630753 901.163696,207.713364 901.163696,211.167938 
	C904.627075,211.167938 907.712463,211.167938 911.161011,211.167938 
	C911.161011,217.969925 911.161011,224.383362 911.161011,231.171677 
	C914.636230,231.171677 917.718445,231.171677 921.170288,231.171677 
	C921.170288,234.635345 921.170288,237.722168 921.170288,241.174667 
	C924.635986,241.174667 927.714722,241.174667 931.167480,241.174667 
	C931.167480,247.975861 931.167480,254.389862 931.167480,261.181335 
	C934.639648,261.181335 937.718079,261.181335 941.170898,261.181335 
	C941.170898,267.980652 941.170898,274.393890 941.170898,281.185059 
	C944.643250,281.185059 947.721558,281.185059 951.174316,281.185059 
	C951.174316,287.983643 951.174316,294.397919 951.174316,301.188751 
	C954.646973,301.188751 957.725098,301.188751 961.177795,301.188751 
	C961.177795,307.988190 961.177795,314.401459 961.177795,321.192474 
	C964.650513,321.192474 967.728516,321.192474 971.179749,321.192474 
	C971.179749,331.324097 971.179749,341.070374 971.179749,351.193115 
	C974.651184,351.193115 977.729065,351.193115 981.180298,351.193115 
	C981.180298,361.324738 981.180298,371.071014 981.180298,381.193726 
	C984.651733,381.193726 987.729675,381.193726 991.173706,381.193726 
	C991.173706,397.993011 991.173706,414.405060 991.173706,431.000000 
	C994.706726,431.000000 997.853333,431.000000 1001.000000,431.000000 
	C1001.000000,477.687561 1001.000000,524.375122 1000.666504,571.215088 
	C999.726807,571.573914 999.078674,572.038391 998.520874,571.947693 
	C990.997009,570.723938 991.000061,570.704773 991.000000,578.378174 
	C990.999939,592.486023 991.000000,606.593872 991.000000,621.087097 
	C987.454712,621.087097 984.372192,621.087097 980.917847,621.087097 
	C980.917847,631.216858 980.917847,640.962891 980.917847,651.089111 
	C977.452759,651.089111 974.370300,651.089111 970.916016,651.089111 
	C970.916016,661.218872 970.916016,670.964600 970.916016,681.091064 
	C967.450745,681.091064 964.368347,681.091064 960.912903,681.091064 
	C960.912903,687.887939 960.912903,694.305542 960.912903,701.095703 
	C957.446106,701.095703 954.363770,701.095703 950.908508,701.095703 
	C950.908508,707.892883 950.908508,714.310242 950.908508,721.100464 
	C947.441406,721.100464 944.359253,721.100464 940.904114,721.100464 
	C940.904114,727.897827 940.904114,734.314880 940.904114,741.105103 
	C937.436768,741.105103 934.354736,741.105103 930.899719,741.105103 
	C930.899719,747.902832 930.899719,754.319519 930.899719,761.108154 
	C927.429077,761.108154 924.344482,761.108154 920.891846,761.108154 
	C920.891846,764.571472 920.891846,767.656738 920.891846,771.111816 
	C917.429504,771.111816 914.347046,771.111816 910.891724,771.111816 
	C910.891724,777.911499 910.891724,784.328796 910.891724,791.116577 
	C907.420532,791.116577 904.336121,791.116577 900.883606,791.116577 
	C900.883606,794.580322 900.883606,797.665344 900.883606,801.118225 
	C897.417847,801.118225 894.332886,801.118225 890.879883,801.118225 
	C890.879883,804.583984 890.879883,807.668823 890.879883,811.123901 
	C887.417053,811.123901 884.335205,811.123901 880.880249,811.123901 
	C880.880249,817.924194 880.880249,824.341797 880.880249,831.128662 
	C877.410461,831.128662 874.322449,831.128662 870.871704,831.128662 
	C870.871704,834.592896 870.871704,837.677368 870.871704,841.130127 
	C867.405212,841.130127 864.320801,841.130127 860.868042,841.130127 
	C860.868042,844.594299 860.868042,847.683044 860.868042,851.133728 
	C857.401367,851.133728 854.317139,851.133728 850.864502,851.133728 
	C850.864502,854.598206 850.864502,857.686951 850.864502,861.137329 
	C847.397522,861.137329 844.313477,861.137329 840.860840,861.137329 
	C840.860840,864.602051 840.860840,867.690796 840.860840,871.140991 
	C837.393677,871.140991 834.309875,871.140991 830.854858,871.140991 
	C830.854858,874.605103 830.854858,877.685608 830.854858,881.139893 
	C824.054565,881.139893 817.639526,881.139893 810.850037,881.139893 
	C810.850037,884.613770 810.850037,887.696899 810.850037,891.149231 
	C807.384705,891.149231 804.301208,891.149231 800.848938,891.149231 
	C800.848938,894.617249 800.848938,897.700562 800.848938,901.152954 
	C797.380920,901.152954 794.297668,901.152954 790.842712,901.152954 
	C790.842712,904.617798 790.842712,907.697632 790.842712,911.151428 
	C784.040649,911.151428 777.626404,911.151428 770.837891,911.151428 
	C770.837891,914.626343 770.837891,917.709045 770.837891,921.161255 
	C767.371948,921.161255 764.289124,921.161255 760.834229,921.161255 
	C760.834229,924.624695 760.834229,927.710144 760.834229,931.159424 
	C754.033081,931.159424 747.618835,931.159424 740.826660,931.159424 
	C740.826660,934.631531 740.826660,937.710388 740.826660,941.163879 
	C734.027161,941.163879 727.613586,941.163879 720.822021,941.163879 
	C720.822021,944.636230 720.822021,947.714966 720.822021,951.168274 
	C714.022400,951.168274 707.608887,951.168274 700.817261,951.168274 
	C700.817261,954.640930 700.817261,957.719421 700.817261,961.172668 
	C694.017578,961.172668 687.604065,961.172668 680.812500,961.172668 
	C680.812500,964.645569 680.812500,967.723816 680.812500,971.175659 
	C670.680481,971.175659 660.933838,971.175659 650.810547,971.175659 
	C650.810547,974.647461 650.810547,977.725647 650.810547,981.177551 
	C640.678467,981.177551 630.931824,981.177551 620.808533,981.177551 
	C620.808533,984.649475 620.808533,987.727539 620.808533,991.172546 
	C604.008545,991.172546 587.595886,991.172546 571.000000,991.172546 
	C571.000000,994.706482 571.000000,997.853271 571.000000,1001.000000 
	C524.645752,1001.000000 478.291534,1001.000000 431.468658,1000.539612 
	C431.000000,997.140015 431.000000,994.200806 431.000000,990.891479 
	C414.087128,990.891479 397.677826,990.891479 380.885925,990.891479 
	C380.885925,987.427856 380.885925,984.346313 380.885925,980.893311 
	C370.756165,980.893311 361.010193,980.893311 350.885254,980.893311 
	C350.885254,977.427246 350.885254,974.345764 350.885254,970.892761 
	C340.755493,970.892761 331.009521,970.892761 320.884705,970.892761 
	C320.884705,967.426575 320.884705,964.345093 320.884705,960.890747 
	C314.087799,960.890747 307.670959,960.890747 300.881012,960.890747 
	C300.881012,957.422913 300.881012,954.341553 300.881012,950.887268 
	C294.083527,950.887268 287.666321,950.887268 280.877319,950.887268 
	C280.877319,947.419312 280.877319,944.338074 280.877319,940.883789 
	C274.079712,940.883789 267.662415,940.883789 260.873596,940.883789 
	C260.873596,937.415588 260.873596,934.334534 260.873596,930.880371 
	C254.075836,930.880371 247.658508,930.880371 240.872009,930.880371 
	C240.872009,927.411133 240.872009,924.323303 240.872009,920.872620 
	C237.408157,920.872620 234.323761,920.872620 230.869003,920.872620 
	C230.869003,917.411804 230.869003,914.325623 230.869003,910.874023 
	C224.068741,910.874023 217.651550,910.874023 210.865265,910.874023 
	C210.865265,907.401978 210.865265,904.318359 210.865265,900.866089 
	C207.401077,900.866089 204.316956,900.866089 200.864532,900.866089 
	C200.864532,897.401855 200.864532,894.313232 200.864532,890.862976 
	C197.397873,890.862976 194.313965,890.862976 190.859192,890.862976 
	C190.859192,887.399414 190.859192,884.318726 190.859192,880.864746 
	C184.058334,880.864746 177.641846,880.864746 170.855438,880.864746 
	C170.855438,877.391785 170.855438,874.308533 170.855438,870.856445 
	C167.392822,870.856445 164.305344,870.856445 160.854874,870.856445 
	C160.854874,867.389160 160.854874,864.305603 160.854874,860.853394 
	C157.387482,860.853394 154.304016,860.853394 150.851852,860.853394 
	C150.851852,857.385864 150.851852,854.302490 150.851852,850.850342 
	C147.384232,850.850342 144.300919,850.850342 140.848831,850.850342 
	C140.848831,847.382629 140.848831,844.299438 140.848831,840.847351 
	C137.380981,840.847351 134.297821,840.847351 130.845749,840.847351 
	C130.845749,837.379395 130.845749,834.296387 130.845749,830.841736 
	C127.381096,830.841736 124.301468,830.841736 120.848175,830.841736 
	C120.848175,824.040039 120.848175,817.626038 120.848175,810.837952 
	C117.373726,810.837952 114.291161,810.837952 110.839233,810.837952 
	C110.839233,807.372314 110.839233,804.289551 110.839233,800.837646 
	C107.370651,800.837646 104.287956,800.837646 100.836121,800.837646 
	C100.836121,797.368958 100.836121,794.286377 100.836121,790.831909 
	C97.370804,790.831909 94.291748,790.831909 90.838852,790.831909 
	C90.838852,784.029907 90.838852,777.616394 90.838852,770.828125 
	C87.363594,770.828125 84.281349,770.828125 80.829536,770.828125 
	C80.829536,767.362000 80.829536,764.279724 80.829536,760.825195 
	C77.363869,760.825195 74.285179,760.825195 70.832474,760.825195 
	C70.832474,754.023071 70.832474,747.609741 70.832474,740.818542 
	C67.360283,740.818542 64.281860,740.818542 60.829010,740.818542 
	C60.829010,734.019287 60.829010,727.606018 60.829010,720.814880 
	C57.356628,720.814880 54.278351,720.814880 50.825592,720.814880 
	C50.825592,714.015503 50.825592,707.602295 50.825592,700.811218 
	C47.353001,700.811218 44.274864,700.811218 40.822174,700.811218 
	C40.822174,694.011780 40.822174,687.598511 40.822174,680.807495 
	C37.351826,680.807495 34.268509,680.807495 30.820278,680.807495 
	C30.820278,670.675903 30.820278,660.929565 30.820278,650.806824 
	C27.351223,650.806824 24.267933,650.806824 20.819719,650.806824 
	C20.819719,640.675171 20.819719,630.928528 20.819719,620.806274 
	C17.348261,620.806274 14.270356,620.806274 10.826309,620.806274 
	C10.826309,604.007019 10.826309,587.594971 10.826309,571.000000 
	C7.293294,571.000000 4.146647,571.000000 1.000000,571.000000 
	C1.000000,524.645752 1.000000,478.291534 1.460389,431.468658 
	C4.859870,431.000000 7.798961,431.000000 11.108133,431.000000 
	C11.108133,414.087524 11.108133,397.678192 11.108133,380.886261 
	C14.569421,380.886261 17.655367,380.886261 21.106327,380.886261 
	C21.106327,370.756500 21.106327,361.010620 21.106327,350.885620 
	C24.572414,350.885620 27.653936,350.885620 31.106922,350.885620 
	C31.106922,340.755859 31.106922,331.009888 31.106922,320.885010 
	C34.573082,320.885010 37.654610,320.885010 41.109001,320.885010 
	C41.109001,314.088104 41.109001,307.671234 41.109001,300.881287 
	C44.574566,300.881287 47.660751,300.881287 51.112465,300.881287 
	C51.112465,294.083801 51.112465,287.666595 51.112465,280.877563 
	C54.580456,280.877563 57.661674,280.877563 61.115940,280.877563 
	C61.115940,274.079956 61.115940,267.662659 61.115940,260.873840 
	C64.584152,260.873840 67.665207,260.873840 71.119370,260.873840 
	C71.119370,254.076080 71.119370,247.658722 71.119370,240.872208 
	C74.590942,240.872208 77.674835,240.872208 81.127144,240.872208 
	C81.127144,237.408386 81.127144,234.323990 81.127144,230.869232 
	C84.590096,230.869232 87.671432,230.869232 91.125755,230.869232 
	C91.125755,224.069748 91.125755,217.654388 91.125755,210.865479 
	C94.597839,210.865479 97.681473,210.865479 101.133720,210.865479 
	C101.133720,207.401321 101.133720,204.317200 101.133720,200.864761 
	C104.600288,200.864761 107.684326,200.864761 111.136795,200.864761 
	C111.136795,197.398117 111.136795,194.314194 111.136795,190.859436 
	C114.600334,190.859436 117.681061,190.859436 121.135056,190.859436 
	C121.135056,184.059631 121.135056,177.644409 121.135056,170.855652 
	C124.607979,170.855652 127.691216,170.855652 131.143356,170.855652 
	C131.143356,167.390976 131.143356,164.307358 131.143356,160.855133 
	C134.610626,160.855133 137.694168,160.855133 141.146362,160.855133 
	C141.146362,157.387772 141.146362,154.304306 141.146362,150.852142 
	C144.611496,150.852142 147.699921,150.852142 151.149353,150.852142 
	C151.149353,147.384552 151.149353,144.301224 151.149353,140.849152 
	C154.617065,140.849152 157.700302,140.849152 161.152344,140.849152 
	C161.152344,137.381332 161.152344,134.298157 161.152344,130.846100 
	C164.620239,130.846100 167.703308,130.846100 171.157944,130.846100 
	C171.157944,127.381454 171.157944,124.301796 171.157944,120.848457 
	C177.959625,120.848457 184.373688,120.848457 191.161713,120.848457 
	C191.161713,117.374023 191.161713,114.291451 191.161713,110.839539 
	C194.627396,110.839539 197.710175,110.839539 201.161987,110.839539 
	C201.161987,107.370995 201.161987,104.288284 201.161987,100.836464 
	C204.630600,100.836464 207.713211,100.836464 211.167770,100.836464 
	C211.167770,97.371178 211.167770,94.292091 211.167770,90.839157 
	C217.969772,90.839157 224.383224,90.839157 231.171539,90.839157 
	C231.171539,87.366425 231.171539,84.279953 231.171539,80.829834 
	C234.637695,80.829834 237.720001,80.829834 241.174500,80.829834 
	C241.174500,77.365997 241.174500,74.280586 241.174500,70.832718 
	C247.975693,70.832718 254.389709,70.832718 261.181213,70.832718 
	C261.181213,67.362228 261.181213,64.277023 261.181213,60.829231 
	C267.980469,60.829231 274.393738,60.829231 281.184937,60.829231 
	C281.184937,57.356838 281.184937,54.278557 281.184937,50.825768 
	C287.984314,50.825768 294.397552,50.825768 301.188660,50.825768 
	C301.188660,47.354706 301.188660,44.269436 301.188660,40.822292 
	C307.988098,40.822292 314.401398,40.822292 321.192444,40.822292 
	C321.192444,37.349522 321.192444,34.271553 321.192444,30.820316 
	C331.324066,30.820316 341.070343,30.820316 351.193085,30.820316 
	C351.193085,27.348896 351.193085,24.270954 351.193085,20.819721 
	C361.324707,20.819721 371.070984,20.819721 381.193726,20.819721 
	C381.193726,17.348269 381.193726,14.270350 381.193726,10.826295 
	C397.993011,10.826295 414.405060,10.826295 431.000000,10.826295 
	C431.000000,7.294343 431.000000,4.147172 431.000000,1.000000 
z"/>
<path fill="#000000" opacity="1.000000" stroke="none" 
	d="
M430.531342,1.000000 
	C431.000000,4.147172 431.000000,7.294343 431.000000,10.826295 
	C414.405060,10.826295 397.993011,10.826295 381.193726,10.826295 
	C381.193726,14.270350 381.193726,17.348269 381.193726,20.819721 
	C371.070984,20.819721 361.324707,20.819721 351.193085,20.819721 
	C351.193085,24.270954 351.193085,27.348896 351.193085,30.820316 
	C341.070343,30.820316 331.324066,30.820316 321.192444,30.820316 
	C321.192444,34.271553 321.192444,37.349522 321.192444,40.822292 
	C314.401398,40.822292 307.988098,40.822292 301.188660,40.822292 
	C301.188660,44.269436 301.188660,47.354706 301.188660,50.825768 
	C294.397552,50.825768 287.984314,50.825768 281.184937,50.825768 
	C281.184937,54.278557 281.184937,57.356838 281.184937,60.829231 
	C274.393738,60.829231 267.980469,60.829231 261.181213,60.829231 
	C261.181213,64.277023 261.181213,67.362228 261.181213,70.832718 
	C254.389709,70.832718 247.975693,70.832718 241.174500,70.832718 
	C241.174500,74.280586 241.174500,77.365997 241.174500,80.829834 
	C237.720001,80.829834 234.637695,80.829834 231.171539,80.829834 
	C231.171539,84.279953 231.171539,87.366425 231.171539,90.839157 
	C224.383224,90.839157 217.969772,90.839157 211.167770,90.839157 
	C211.167770,94.292091 211.167770,97.371178 211.167770,100.836464 
	C207.713211,100.836464 204.630600,100.836464 201.161987,100.836464 
	C201.161987,104.288284 201.161987,107.370995 201.161987,110.839539 
	C197.710175,110.839539 194.627396,110.839539 191.161713,110.839539 
	C191.161713,114.291451 191.161713,117.374023 191.161713,120.848457 
	C184.373688,120.848457 177.959625,120.848457 171.157944,120.848457 
	C171.157944,124.301796 171.157944,127.381454 171.157944,130.846100 
	C167.703308,130.846100 164.620239,130.846100 161.152344,130.846100 
	C161.152344,134.298157 161.152344,137.381332 161.152344,140.849152 
	C157.700302,140.849152 154.617065,140.849152 151.149353,140.849152 
	C151.149353,144.301224 151.149353,147.384552 151.149353,150.852142 
	C147.699921,150.852142 144.611496,150.852142 141.146362,150.852142 
	C141.146362,154.304306 141.146362,157.387772 141.146362,160.855133 
	C137.694168,160.855133 134.610626,160.855133 131.143356,160.855133 
	C131.143356,164.307358 131.143356,167.390976 131.143356,170.855652 
	C127.691216,170.855652 124.607979,170.855652 121.135056,170.855652 
	C121.135056,177.644409 121.135056,184.059631 121.135056,190.859436 
	C117.681061,190.859436 114.600334,190.859436 111.136795,190.859436 
	C111.136795,194.314194 111.136795,197.398117 111.136795,200.864761 
	C107.684326,200.864761 104.600288,200.864761 101.133720,200.864761 
	C101.133720,204.317200 101.133720,207.401321 101.133720,210.865479 
	C97.681473,210.865479 94.597839,210.865479 91.125755,210.865479 
	C91.125755,217.654388 91.125755,224.069748 91.125755,230.869232 
	C87.671432,230.869232 84.590096,230.869232 81.127144,230.869232 
	C81.127144,234.323990 81.127144,237.408386 81.127144,240.872208 
	C77.674835,240.872208 74.590942,240.872208 71.119370,240.872208 
	C71.119370,247.658722 71.119370,254.076080 71.119370,260.873840 
	C67.665207,260.873840 64.584152,260.873840 61.115940,260.873840 
	C61.115940,267.662659 61.115940,274.079956 61.115940,280.877563 
	C57.661674,280.877563 54.580456,280.877563 51.112465,280.877563 
	C51.112465,287.666595 51.112465,294.083801 51.112465,300.881287 
	C47.660751,300.881287 44.574566,300.881287 41.109001,300.881287 
	C41.109001,307.671234 41.109001,314.088104 41.109001,320.885010 
	C37.654610,320.885010 34.573082,320.885010 31.106922,320.885010 
	C31.106922,331.009888 31.106922,340.755859 31.106922,350.885620 
	C27.653936,350.885620 24.572414,350.885620 21.106327,350.885620 
	C21.106327,361.010620 21.106327,370.756500 21.106327,380.886261 
	C17.655367,380.886261 14.569421,380.886261 11.108133,380.886261 
	C11.108133,397.678192 11.108133,414.087524 11.108133,431.000000 
	C7.798961,431.000000 4.859870,431.000000 1.460389,431.000000 
	C1.000000,287.739594 1.000000,144.479172 1.000000,1.000000 
	C144.020813,1.000000 287.041748,1.000000 430.531342,1.000000 
z"/>
<path fill="#000000" opacity="1.000000" stroke="none" 
	d="
M1001.000000,430.531342 
	C997.853333,431.000000 994.706726,431.000000 991.173706,431.000000 
	C991.173706,414.405060 991.173706,397.993011 991.173706,381.193726 
	C987.729675,381.193726 984.651733,381.193726 981.180298,381.193726 
	C981.180298,371.071014 981.180298,361.324738 981.180298,351.193115 
	C977.729065,351.193115 974.651184,351.193115 971.179749,351.193115 
	C971.179749,341.070374 971.179749,331.324097 971.179749,321.192474 
	C967.728516,321.192474 964.650513,321.192474 961.177795,321.192474 
	C961.177795,314.401459 961.177795,307.988190 961.177795,301.188751 
	C957.725098,301.188751 954.646973,301.188751 951.174316,301.188751 
	C951.174316,294.397919 951.174316,287.983643 951.174316,281.185059 
	C947.721558,281.185059 944.643250,281.185059 941.170898,281.185059 
	C941.170898,274.393890 941.170898,267.980652 941.170898,261.181335 
	C937.718079,261.181335 934.639648,261.181335 931.167480,261.181335 
	C931.167480,254.389862 931.167480,247.975861 931.167480,241.174667 
	C927.714722,241.174667 924.635986,241.174667 921.170288,241.174667 
	C921.170288,237.722168 921.170288,234.635345 921.170288,231.171677 
	C917.718445,231.171677 914.636230,231.171677 911.161011,231.171677 
	C911.161011,224.383362 911.161011,217.969925 911.161011,211.167938 
	C907.712463,211.167938 904.627075,211.167938 901.163696,211.167938 
	C901.163696,207.713364 901.163696,204.630753 901.163696,201.162140 
	C897.711853,201.162140 894.629150,201.162140 891.160583,201.162140 
	C891.160583,197.710342 891.160583,194.627563 891.160583,191.161865 
	C887.710999,191.161865 884.623657,191.161865 881.151733,191.161865 
	C881.151733,184.373810 881.151733,177.959778 881.151733,171.158112 
	C877.702087,171.158112 874.616699,171.158112 871.154053,171.158112 
	C871.154053,167.703445 871.154053,164.620377 871.154053,161.152481 
	C867.701965,161.152481 864.618774,161.152481 861.150940,161.152481 
	C861.150940,157.700424 861.150940,154.617172 861.150940,151.149460 
	C857.698853,151.149460 854.615540,151.149460 851.147949,151.149460 
	C851.147949,147.697327 851.147949,144.613922 851.147949,141.146439 
	C847.695740,141.146439 844.612305,141.146439 841.144897,141.146439 
	C841.144897,137.694244 841.144897,134.610687 841.144897,131.143402 
	C837.692627,131.143402 834.609070,131.143402 831.144409,131.143402 
	C831.144409,127.691246 831.144409,124.608017 831.144409,121.135101 
	C824.358032,121.135101 817.941467,121.135101 811.140625,121.135101 
	C811.140625,117.681122 811.140625,114.600418 811.140625,111.136864 
	C807.685913,111.136864 804.601990,111.136864 801.135254,111.136864 
	C801.135254,107.686584 801.135254,104.597992 801.135254,101.133751 
	C797.684937,101.133751 794.596313,101.133751 791.134521,101.133751 
	C791.134521,97.681488 791.134521,94.597855 791.134521,91.125778 
	C784.348267,91.125778 777.931030,91.125778 771.130798,91.125778 
	C771.130798,87.674179 771.130798,84.587997 771.130798,81.127228 
	C767.678284,81.127228 764.589417,81.127228 761.127930,81.127228 
	C761.127930,77.677299 761.127930,74.588821 761.127930,71.119476 
	C754.341431,71.119476 747.924072,71.119476 741.126282,71.119476 
	C741.126282,67.665329 741.126282,64.584282 741.126282,61.116096 
	C734.337463,61.116096 727.920227,61.116096 721.122620,61.116096 
	C721.122620,57.664566 721.122620,54.578484 721.122620,51.112679 
	C714.333618,51.112679 707.916443,51.112679 701.118958,51.112679 
	C701.118958,47.660995 701.118958,44.574821 701.118958,41.109261 
	C694.329712,41.109261 687.912659,41.109261 681.115356,41.109261 
	C681.115356,37.657429 681.115356,34.571175 681.115356,31.107203 
	C670.990540,31.107203 661.244507,31.107203 651.114746,31.107203 
	C651.114746,27.656305 651.114746,24.570398 651.114746,21.106644 
	C640.989807,21.106644 631.243896,21.106644 621.114136,21.106644 
	C621.114136,17.653660 621.114136,14.572137 621.114136,11.108473 
	C604.322205,11.108473 587.912903,11.108473 571.000000,11.108473 
	C571.000000,7.799200 571.000000,4.859990 571.000000,1.460390 
	C714.260376,1.000000 857.520813,1.000000 1001.000000,1.000000 
	C1001.000000,144.020813 1001.000000,287.041748 1001.000000,430.531342 
z"/>
<path fill="#000000" opacity="1.000000" stroke="none" 
	d="
M1.000000,571.468628 
	C4.146647,571.000000 7.293294,571.000000 10.826309,571.000000 
	C10.826309,587.594971 10.826309,604.007019 10.826309,620.806274 
	C14.270356,620.806274 17.348261,620.806274 20.819719,620.806274 
	C20.819719,630.928528 20.819719,640.675171 20.819719,650.806824 
	C24.267933,650.806824 27.351223,650.806824 30.820278,650.806824 
	C30.820278,660.929565 30.820278,670.675903 30.820278,680.807495 
	C34.268509,680.807495 37.351826,680.807495 40.822174,680.807495 
	C40.822174,687.598511 40.822174,694.011780 40.822174,700.811218 
	C44.274864,700.811218 47.353001,700.811218 50.825592,700.811218 
	C50.825592,707.602295 50.825592,714.015503 50.825592,720.814880 
	C54.278351,720.814880 57.356628,720.814880 60.829010,720.814880 
	C60.829010,727.606018 60.829010,734.019287 60.829010,740.818542 
	C64.281860,740.818542 67.360283,740.818542 70.832474,740.818542 
	C70.832474,747.609741 70.832474,754.023071 70.832474,760.825195 
	C74.285179,760.825195 77.363869,760.825195 80.829536,760.825195 
	C80.829536,764.279724 80.829536,767.362000 80.829536,770.828125 
	C84.281349,770.828125 87.363594,770.828125 90.838852,770.828125 
	C90.838852,777.616394 90.838852,784.029907 90.838852,790.831909 
	C94.291748,790.831909 97.370804,790.831909 100.836121,790.831909 
	C100.836121,794.286377 100.836121,797.368958 100.836121,800.837646 
	C104.287956,800.837646 107.370651,800.837646 110.839233,800.837646 
	C110.839233,804.289551 110.839233,807.372314 110.839233,810.837952 
	C114.291161,810.837952 117.373726,810.837952 120.848175,810.837952 
	C120.848175,817.626038 120.848175,824.040039 120.848175,830.841736 
	C124.301468,830.841736 127.381096,830.841736 130.845749,830.841736 
	C130.845749,834.296387 130.845749,837.379395 130.845749,840.847351 
	C134.297821,840.847351 137.380981,840.847351 140.848831,840.847351 
	C140.848831,844.299438 140.848831,847.382629 140.848831,850.850342 
	C144.300919,850.850342 147.384232,850.850342 150.851852,850.850342 
	C150.851852,854.302490 150.851852,857.385864 150.851852,860.853394 
	C154.304016,860.853394 157.387482,860.853394 160.854874,860.853394 
	C160.854874,864.305603 160.854874,867.389160 160.854874,870.856445 
	C164.305344,870.856445 167.392822,870.856445 170.855438,870.856445 
	C170.855438,874.308533 170.855438,877.391785 170.855438,880.864746 
	C177.641846,880.864746 184.058334,880.864746 190.859192,880.864746 
	C190.859192,884.318726 190.859192,887.399414 190.859192,890.862976 
	C194.313965,890.862976 197.397873,890.862976 200.864532,890.862976 
	C200.864532,894.313232 200.864532,897.401855 200.864532,900.866089 
	C204.316956,900.866089 207.401077,900.866089 210.865265,900.866089 
	C210.865265,904.318359 210.865265,907.401978 210.865265,910.874023 
	C217.651550,910.874023 224.068741,910.874023 230.869003,910.874023 
	C230.869003,914.325623 230.869003,917.411804 230.869003,920.872620 
	C234.323761,920.872620 237.408157,920.872620 240.872009,920.872620 
	C240.872009,924.323303 240.872009,927.411133 240.872009,930.880371 
	C247.658508,930.880371 254.075836,930.880371 260.873596,930.880371 
	C260.873596,934.334534 260.873596,937.415588 260.873596,940.883789 
	C267.662415,940.883789 274.079712,940.883789 280.877319,940.883789 
	C280.877319,944.338074 280.877319,947.419312 280.877319,950.887268 
	C287.666321,950.887268 294.083527,950.887268 300.881012,950.887268 
	C300.881012,954.341553 300.881012,957.422913 300.881012,960.890747 
	C307.670959,960.890747 314.087799,960.890747 320.884705,960.890747 
	C320.884705,964.345093 320.884705,967.426575 320.884705,970.892761 
	C331.009521,970.892761 340.755493,970.892761 350.885254,970.892761 
	C350.885254,974.345764 350.885254,977.427246 350.885254,980.893311 
	C361.010193,980.893311 370.756165,980.893311 380.885925,980.893311 
	C380.885925,984.346313 380.885925,987.427856 380.885925,990.891479 
	C397.677826,990.891479 414.087128,990.891479 431.000000,990.891479 
	C431.000000,994.200806 431.000000,997.140015 431.000000,1000.539612 
	C287.739594,1001.000000 144.479172,1001.000000 1.000000,1001.000000 
	C1.000000,857.979187 1.000000,714.958252 1.000000,571.468628 
z"/>
<path fill="#000000" opacity="1.000000" stroke="none" 
	d="
M571.468628,1001.000000 
	C571.000000,997.853271 571.000000,994.706482 571.000000,991.172546 
	C587.595886,991.172546 604.008545,991.172546 620.808533,991.172546 
	C620.808533,987.727539 620.808533,984.649475 620.808533,981.177551 
	C630.931824,981.177551 640.678467,981.177551 650.810547,981.177551 
	C650.810547,977.725647 650.810547,974.647461 650.810547,971.175659 
	C660.933838,971.175659 670.680481,971.175659 680.812500,971.175659 
	C680.812500,967.723816 680.812500,964.645569 680.812500,961.172668 
	C687.604065,961.172668 694.017578,961.172668 700.817261,961.172668 
	C700.817261,957.719421 700.817261,954.640930 700.817261,951.168274 
	C707.608887,951.168274 714.022400,951.168274 720.822021,951.168274 
	C720.822021,947.714966 720.822021,944.636230 720.822021,941.163879 
	C727.613586,941.163879 734.027161,941.163879 740.826660,941.163879 
	C740.826660,937.710388 740.826660,934.631531 740.826660,931.159424 
	C747.618835,931.159424 754.033081,931.159424 760.834229,931.159424 
	C760.834229,927.710144 760.834229,924.624695 760.834229,921.161255 
	C764.289124,921.161255 767.371948,921.161255 770.837891,921.161255 
	C770.837891,917.709045 770.837891,914.626343 770.837891,911.151428 
	C777.626404,911.151428 784.040649,911.151428 790.842712,911.151428 
	C790.842712,907.697632 790.842712,904.617798 790.842712,901.152954 
	C794.297668,901.152954 797.380920,901.152954 800.848938,901.152954 
	C800.848938,897.700562 800.848938,894.617249 800.848938,891.149231 
	C804.301208,891.149231 807.384705,891.149231 810.850037,891.149231 
	C810.850037,887.696899 810.850037,884.613770 810.850037,881.139893 
	C817.639526,881.139893 824.054565,881.139893 830.854858,881.139893 
	C830.854858,877.685608 830.854858,874.605103 830.854858,871.140991 
	C834.309875,871.140991 837.393677,871.140991 840.860840,871.140991 
	C840.860840,867.690796 840.860840,864.602051 840.860840,861.137329 
	C844.313477,861.137329 847.397522,861.137329 850.864502,861.137329 
	C850.864502,857.686951 850.864502,854.598206 850.864502,851.133728 
	C854.317139,851.133728 857.401367,851.133728 860.868042,851.133728 
	C860.868042,847.683044 860.868042,844.594299 860.868042,841.130127 
	C864.320801,841.130127 867.405212,841.130127 870.871704,841.130127 
	C870.871704,837.677368 870.871704,834.592896 870.871704,831.128662 
	C874.322449,831.128662 877.410461,831.128662 880.880249,831.128662 
	C880.880249,824.341797 880.880249,817.924194 880.880249,811.123901 
	C884.335205,811.123901 887.417053,811.123901 890.879883,811.123901 
	C890.879883,807.668823 890.879883,804.583984 890.879883,801.118225 
	C894.332886,801.118225 897.417847,801.118225 900.883606,801.118225 
	C900.883606,797.665344 900.883606,794.580322 900.883606,791.116577 
	C904.336121,791.116577 907.420532,791.116577 910.891724,791.116577 
	C910.891724,784.328796 910.891724,777.911499 910.891724,771.111816 
	C914.347046,771.111816 917.429504,771.111816 920.891846,771.111816 
	C920.891846,767.656738 920.891846,764.571472 920.891846,761.108154 
	C924.344482,761.108154 927.429077,761.108154 930.899719,761.108154 
	C930.899719,754.319519 930.899719,747.902832 930.899719,741.105103 
	C934.354736,741.105103 937.436768,741.105103 940.904114,741.105103 
	C940.904114,734.314880 940.904114,727.897827 940.904114,721.100464 
	C944.359253,721.100464 947.441406,721.100464 950.908508,721.100464 
	C950.908508,714.310242 950.908508,707.892883 950.908508,701.095703 
	C954.363770,701.095703 957.446106,701.095703 960.912903,701.095703 
	C960.912903,694.305542 960.912903,687.887939 960.912903,681.091064 
	C964.368347,681.091064 967.450745,681.091064 970.916016,681.091064 
	C970.916016,670.964600 970.916016,661.218872 970.916016,651.089111 
	C974.370300,651.089111 977.452759,651.089111 980.917847,651.089111 
	C980.917847,640.962891 980.917847,631.216858 980.917847,621.087097 
	C984.372192,621.087097 987.454712,621.087097 991.000000,621.087097 
	C991.000000,606.593872 990.999939,592.486023 991.000000,578.378174 
	C991.000061,570.704773 990.997009,570.723938 998.520874,571.947693 
	C999.078674,572.038391 999.726807,571.573914 1000.666504,571.683777 
	C1001.000000,714.927185 1001.000000,857.854309 1001.000000,1001.000000 
	C857.979187,1001.000000 714.958252,1001.000000 571.468628,1001.000000 
z"/>
</svg>